<mxfile host="app.diagrams.net" agent="Mozilla/5.0 (X11; Linux x86_64; rv:135.0) Gecko/20100101 Firefox/135.0" version="26.0.16">
  <diagram name="Page-1" id="8OXcH2Mqk-x3acK_hX3u">
    <mxGraphModel dx="150" dy="84" grid="1" gridSize="10" guides="1" tooltips="1" connect="1" arrows="1" fold="1" page="1" pageScale="1" pageWidth="850" pageHeight="1100" math="0" shadow="0">
      <root>
        <mxCell id="0" />
        <mxCell id="1" parent="0" />
        <mxCell id="W5Nxt-n41S5UP08d7dyt-1" value="&lt;div&gt;var&lt;/div&gt;" style="rounded=1;whiteSpace=wrap;html=1;" parent="1" vertex="1">
          <mxGeometry x="200" y="265" width="50" height="20" as="geometry" />
        </mxCell>
        <mxCell id="W5Nxt-n41S5UP08d7dyt-2" value="x" style="rounded=1;whiteSpace=wrap;html=1;" parent="1" vertex="1">
          <mxGeometry x="200" y="345" width="50" height="20" as="geometry" />
        </mxCell>
        <mxCell id="lCIaptbDHiZbJB-At_bS-24" style="edgeStyle=orthogonalEdgeStyle;rounded=0;orthogonalLoop=1;jettySize=auto;html=1;exitX=1;exitY=0.5;exitDx=0;exitDy=0;entryX=0;entryY=0.5;entryDx=0;entryDy=0;" parent="1" source="W5Nxt-n41S5UP08d7dyt-3" target="W5Nxt-n41S5UP08d7dyt-7" edge="1">
          <mxGeometry relative="1" as="geometry" />
        </mxCell>
        <mxCell id="W5Nxt-n41S5UP08d7dyt-3" value=":" style="rounded=1;whiteSpace=wrap;html=1;" parent="1" vertex="1">
          <mxGeometry x="200" y="385" width="50" height="20" as="geometry" />
        </mxCell>
        <mxCell id="W5Nxt-n41S5UP08d7dyt-4" value="num" style="rounded=1;whiteSpace=wrap;html=1;" parent="1" vertex="1">
          <mxGeometry x="200" y="465" width="50" height="20" as="geometry" />
        </mxCell>
        <mxCell id="W5Nxt-n41S5UP08d7dyt-5" value=";" style="rounded=1;whiteSpace=wrap;html=1;" parent="1" vertex="1">
          <mxGeometry x="200" y="505" width="50" height="20" as="geometry" />
        </mxCell>
        <mxCell id="W5Nxt-n41S5UP08d7dyt-7" value="" style="shape=process;whiteSpace=wrap;html=1;backgroundOutline=1;" parent="1" vertex="1">
          <mxGeometry x="280" y="280" width="100" height="230" as="geometry" />
        </mxCell>
        <mxCell id="W5Nxt-n41S5UP08d7dyt-15" value="Var: &#39;var&#39;" style="rounded=1;whiteSpace=wrap;html=1;" parent="1" vertex="1">
          <mxGeometry x="420" y="305" width="90" height="20" as="geometry" />
        </mxCell>
        <mxCell id="W5Nxt-n41S5UP08d7dyt-17" value="Identifier: &#39;x&#39;" style="rounded=1;whiteSpace=wrap;html=1;" parent="1" vertex="1">
          <mxGeometry x="420" y="345" width="90" height="20" as="geometry" />
        </mxCell>
        <mxCell id="W5Nxt-n41S5UP08d7dyt-19" value="Identifier: &#39;num&#39;" style="rounded=1;whiteSpace=wrap;html=1;" parent="1" vertex="1">
          <mxGeometry x="420" y="425" width="90" height="20" as="geometry" />
        </mxCell>
        <mxCell id="lCIaptbDHiZbJB-At_bS-2" value="&lt;font style=&quot;font-size: 11px;&quot;&gt;Ignored&lt;/font&gt;" style="rhombus;whiteSpace=wrap;html=1;" parent="1" vertex="1">
          <mxGeometry x="360" y="520" width="60" height="60" as="geometry" />
        </mxCell>
        <mxCell id="lCIaptbDHiZbJB-At_bS-11" value="" style="endArrow=none;dashed=1;html=1;rounded=0;entryX=1.008;entryY=0.281;entryDx=0;entryDy=0;entryPerimeter=0;exitX=-0.011;exitY=0.281;exitDx=0;exitDy=0;exitPerimeter=0;" parent="1" edge="1">
          <mxGeometry width="50" height="50" relative="1" as="geometry">
            <mxPoint x="280" y="500" as="sourcePoint" />
            <mxPoint x="382" y="500" as="targetPoint" />
          </mxGeometry>
        </mxCell>
        <mxCell id="lCIaptbDHiZbJB-At_bS-12" value="&#39; &#39;" style="rounded=1;whiteSpace=wrap;html=1;" parent="1" vertex="1">
          <mxGeometry x="200" y="305" width="50" height="20" as="geometry" />
        </mxCell>
        <mxCell id="lCIaptbDHiZbJB-At_bS-14" style="edgeStyle=orthogonalEdgeStyle;rounded=0;orthogonalLoop=1;jettySize=auto;html=1;exitX=0.5;exitY=1;exitDx=0;exitDy=0;" parent="1" source="W5Nxt-n41S5UP08d7dyt-2" target="W5Nxt-n41S5UP08d7dyt-2" edge="1">
          <mxGeometry relative="1" as="geometry" />
        </mxCell>
        <mxCell id="lCIaptbDHiZbJB-At_bS-17" value="&#39; &#39;" style="rounded=1;whiteSpace=wrap;html=1;" parent="1" vertex="1">
          <mxGeometry x="200" y="425" width="50" height="20" as="geometry" />
        </mxCell>
        <mxCell id="lCIaptbDHiZbJB-At_bS-19" value="Colon: &#39;:&#39;" style="rounded=1;whiteSpace=wrap;html=1;" parent="1" vertex="1">
          <mxGeometry x="420" y="385" width="90" height="20" as="geometry" />
        </mxCell>
        <mxCell id="lCIaptbDHiZbJB-At_bS-20" value="Semicolon: &#39;;&#39;" style="rounded=1;whiteSpace=wrap;html=1;" parent="1" vertex="1">
          <mxGeometry x="420" y="465" width="90" height="20" as="geometry" />
        </mxCell>
        <mxCell id="lCIaptbDHiZbJB-At_bS-22" style="edgeStyle=orthogonalEdgeStyle;rounded=0;orthogonalLoop=1;jettySize=auto;html=1;exitX=1;exitY=0.5;exitDx=0;exitDy=0;entryX=0;entryY=0.152;entryDx=0;entryDy=0;entryPerimeter=0;" parent="1" source="lCIaptbDHiZbJB-At_bS-12" target="W5Nxt-n41S5UP08d7dyt-7" edge="1">
          <mxGeometry relative="1" as="geometry" />
        </mxCell>
        <mxCell id="lCIaptbDHiZbJB-At_bS-23" style="edgeStyle=orthogonalEdgeStyle;rounded=0;orthogonalLoop=1;jettySize=auto;html=1;exitX=1;exitY=0.5;exitDx=0;exitDy=0;entryX=-0.016;entryY=0.33;entryDx=0;entryDy=0;entryPerimeter=0;" parent="1" source="W5Nxt-n41S5UP08d7dyt-2" target="W5Nxt-n41S5UP08d7dyt-7" edge="1">
          <mxGeometry relative="1" as="geometry" />
        </mxCell>
        <mxCell id="lCIaptbDHiZbJB-At_bS-25" style="edgeStyle=orthogonalEdgeStyle;rounded=0;orthogonalLoop=1;jettySize=auto;html=1;exitX=1;exitY=0.5;exitDx=0;exitDy=0;entryX=0;entryY=0.674;entryDx=0;entryDy=0;entryPerimeter=0;" parent="1" source="lCIaptbDHiZbJB-At_bS-17" target="W5Nxt-n41S5UP08d7dyt-7" edge="1">
          <mxGeometry relative="1" as="geometry" />
        </mxCell>
        <mxCell id="lCIaptbDHiZbJB-At_bS-26" style="edgeStyle=orthogonalEdgeStyle;rounded=0;orthogonalLoop=1;jettySize=auto;html=1;exitX=1;exitY=0.5;exitDx=0;exitDy=0;entryX=0;entryY=0.848;entryDx=0;entryDy=0;entryPerimeter=0;" parent="1" source="W5Nxt-n41S5UP08d7dyt-4" target="W5Nxt-n41S5UP08d7dyt-7" edge="1">
          <mxGeometry relative="1" as="geometry" />
        </mxCell>
        <mxCell id="lCIaptbDHiZbJB-At_bS-27" style="edgeStyle=orthogonalEdgeStyle;rounded=0;orthogonalLoop=1;jettySize=auto;html=1;exitX=1;exitY=0.5;exitDx=0;exitDy=0;" parent="1" source="W5Nxt-n41S5UP08d7dyt-5" edge="1">
          <mxGeometry relative="1" as="geometry">
            <mxPoint x="280" y="500" as="targetPoint" />
            <Array as="points">
              <mxPoint x="260" y="515" />
              <mxPoint x="260" y="500" />
              <mxPoint x="280" y="500" />
            </Array>
          </mxGeometry>
        </mxCell>
        <mxCell id="lCIaptbDHiZbJB-At_bS-28" style="edgeStyle=orthogonalEdgeStyle;rounded=0;orthogonalLoop=1;jettySize=auto;html=1;exitX=1;exitY=0.5;exitDx=0;exitDy=0;entryX=-0.016;entryY=0.07;entryDx=0;entryDy=0;entryPerimeter=0;" parent="1" source="W5Nxt-n41S5UP08d7dyt-1" edge="1">
          <mxGeometry relative="1" as="geometry">
            <mxPoint x="250" y="271" as="sourcePoint" />
            <mxPoint x="278.4000000000001" y="292.1" as="targetPoint" />
            <Array as="points">
              <mxPoint x="260" y="275" />
              <mxPoint x="260" y="292" />
            </Array>
          </mxGeometry>
        </mxCell>
        <mxCell id="lCIaptbDHiZbJB-At_bS-29" value="" style="endArrow=none;dashed=1;html=1;rounded=0;entryX=1.008;entryY=0.281;entryDx=0;entryDy=0;entryPerimeter=0;exitX=-0.011;exitY=0.281;exitDx=0;exitDy=0;exitPerimeter=0;" parent="1" edge="1">
          <mxGeometry width="50" height="50" relative="1" as="geometry">
            <mxPoint x="280" y="474.76" as="sourcePoint" />
            <mxPoint x="382" y="474.76" as="targetPoint" />
          </mxGeometry>
        </mxCell>
        <mxCell id="lCIaptbDHiZbJB-At_bS-30" value="" style="endArrow=none;dashed=1;html=1;rounded=0;entryX=1.008;entryY=0.281;entryDx=0;entryDy=0;entryPerimeter=0;exitX=-0.011;exitY=0.281;exitDx=0;exitDy=0;exitPerimeter=0;" parent="1" edge="1">
          <mxGeometry width="50" height="50" relative="1" as="geometry">
            <mxPoint x="280" y="434.76" as="sourcePoint" />
            <mxPoint x="382" y="434.76" as="targetPoint" />
          </mxGeometry>
        </mxCell>
        <mxCell id="lCIaptbDHiZbJB-At_bS-31" value="" style="endArrow=none;dashed=1;html=1;rounded=0;entryX=1.008;entryY=0.281;entryDx=0;entryDy=0;entryPerimeter=0;exitX=-0.011;exitY=0.281;exitDx=0;exitDy=0;exitPerimeter=0;" parent="1" edge="1">
          <mxGeometry width="50" height="50" relative="1" as="geometry">
            <mxPoint x="280" y="394.76" as="sourcePoint" />
            <mxPoint x="382" y="394.76" as="targetPoint" />
          </mxGeometry>
        </mxCell>
        <mxCell id="lCIaptbDHiZbJB-At_bS-32" value="&lt;div&gt;Kipper&lt;/div&gt;&lt;div&gt;Antlr4&lt;/div&gt;&lt;div&gt;Lexer&lt;/div&gt;" style="rounded=0;whiteSpace=wrap;html=1;strokeColor=none;" parent="1" vertex="1">
          <mxGeometry x="303" y="365" width="50" height="60" as="geometry" />
        </mxCell>
        <mxCell id="lCIaptbDHiZbJB-At_bS-33" value="" style="endArrow=none;dashed=1;html=1;rounded=0;entryX=1.008;entryY=0.281;entryDx=0;entryDy=0;entryPerimeter=0;exitX=-0.011;exitY=0.281;exitDx=0;exitDy=0;exitPerimeter=0;" parent="1" edge="1">
          <mxGeometry width="50" height="50" relative="1" as="geometry">
            <mxPoint x="280" y="354.76" as="sourcePoint" />
            <mxPoint x="382" y="354.76" as="targetPoint" />
          </mxGeometry>
        </mxCell>
        <mxCell id="lCIaptbDHiZbJB-At_bS-34" value="" style="endArrow=none;dashed=1;html=1;rounded=0;entryX=1.008;entryY=0.281;entryDx=0;entryDy=0;entryPerimeter=0;exitX=-0.011;exitY=0.281;exitDx=0;exitDy=0;exitPerimeter=0;" parent="1" edge="1">
          <mxGeometry width="50" height="50" relative="1" as="geometry">
            <mxPoint x="280" y="314.76" as="sourcePoint" />
            <mxPoint x="382" y="314.76" as="targetPoint" />
          </mxGeometry>
        </mxCell>
        <mxCell id="lCIaptbDHiZbJB-At_bS-35" value="" style="endArrow=none;dashed=1;html=1;rounded=0;entryX=1.008;entryY=0.281;entryDx=0;entryDy=0;entryPerimeter=0;exitX=-0.011;exitY=0.281;exitDx=0;exitDy=0;exitPerimeter=0;" parent="1" edge="1">
          <mxGeometry width="50" height="50" relative="1" as="geometry">
            <mxPoint x="280" y="292" as="sourcePoint" />
            <mxPoint x="382" y="292" as="targetPoint" />
          </mxGeometry>
        </mxCell>
        <mxCell id="lCIaptbDHiZbJB-At_bS-38" style="edgeStyle=orthogonalEdgeStyle;rounded=0;orthogonalLoop=1;jettySize=auto;html=1;exitX=1;exitY=0.5;exitDx=0;exitDy=0;entryX=0.5;entryY=0;entryDx=0;entryDy=0;dashed=1;dashPattern=1 2;" parent="1" target="lCIaptbDHiZbJB-At_bS-2" edge="1">
          <mxGeometry relative="1" as="geometry">
            <mxPoint x="380" y="315" as="sourcePoint" />
            <mxPoint x="410" y="350" as="targetPoint" />
            <Array as="points">
              <mxPoint x="390" y="315" />
              <mxPoint x="390" y="520" />
            </Array>
          </mxGeometry>
        </mxCell>
        <mxCell id="lCIaptbDHiZbJB-At_bS-42" style="edgeStyle=orthogonalEdgeStyle;rounded=0;orthogonalLoop=1;jettySize=auto;html=1;exitX=1.008;exitY=0.676;exitDx=0;exitDy=0;exitPerimeter=0;dashed=1;dashPattern=1 4;endArrow=none;startFill=0;" parent="1" edge="1">
          <mxGeometry relative="1" as="geometry">
            <mxPoint x="380.79999999999995" y="434.48" as="sourcePoint" />
            <mxPoint x="390" y="435" as="targetPoint" />
            <Array as="points">
              <mxPoint x="390" y="435" />
            </Array>
          </mxGeometry>
        </mxCell>
        <mxCell id="lCIaptbDHiZbJB-At_bS-45" value="" style="endArrow=classic;html=1;rounded=0;exitX=1;exitY=0.5;exitDx=0;exitDy=0;entryX=0;entryY=0.5;entryDx=0;entryDy=0;" parent="1" source="W5Nxt-n41S5UP08d7dyt-7" target="lCIaptbDHiZbJB-At_bS-19" edge="1">
          <mxGeometry width="50" height="50" relative="1" as="geometry">
            <mxPoint x="430" y="440" as="sourcePoint" />
            <mxPoint x="480" y="390" as="targetPoint" />
          </mxGeometry>
        </mxCell>
        <mxCell id="lCIaptbDHiZbJB-At_bS-46" value="" style="endArrow=classic;html=1;rounded=0;exitX=1.003;exitY=0.326;exitDx=0;exitDy=0;entryX=0;entryY=0.5;entryDx=0;entryDy=0;exitPerimeter=0;" parent="1" source="W5Nxt-n41S5UP08d7dyt-7" target="W5Nxt-n41S5UP08d7dyt-17" edge="1">
          <mxGeometry width="50" height="50" relative="1" as="geometry">
            <mxPoint x="390" y="405" as="sourcePoint" />
            <mxPoint x="420" y="405" as="targetPoint" />
          </mxGeometry>
        </mxCell>
        <mxCell id="lCIaptbDHiZbJB-At_bS-49" value="" style="endArrow=classic;html=1;rounded=0;exitX=1.032;exitY=0.065;exitDx=0;exitDy=0;exitPerimeter=0;edgeStyle=orthogonalEdgeStyle;entryX=0;entryY=0.5;entryDx=0;entryDy=0;" parent="1" target="W5Nxt-n41S5UP08d7dyt-15" edge="1">
          <mxGeometry width="50" height="50" relative="1" as="geometry">
            <mxPoint x="380.20000000000005" y="291.95000000000005" as="sourcePoint" />
            <mxPoint x="455" y="301" as="targetPoint" />
            <Array as="points">
              <mxPoint x="400" y="292" />
              <mxPoint x="400" y="315" />
            </Array>
          </mxGeometry>
        </mxCell>
        <mxCell id="lCIaptbDHiZbJB-At_bS-51" value="" style="endArrow=classic;html=1;rounded=0;edgeStyle=orthogonalEdgeStyle;entryX=0;entryY=0.5;entryDx=0;entryDy=0;" parent="1" target="lCIaptbDHiZbJB-At_bS-20" edge="1">
          <mxGeometry width="50" height="50" relative="1" as="geometry">
            <mxPoint x="380" y="500" as="sourcePoint" />
            <mxPoint x="480" y="390" as="targetPoint" />
            <Array as="points">
              <mxPoint x="401" y="501" />
              <mxPoint x="401" y="475" />
            </Array>
          </mxGeometry>
        </mxCell>
        <mxCell id="lCIaptbDHiZbJB-At_bS-53" value="" style="endArrow=classic;html=1;rounded=0;exitX=1.022;exitY=0.846;exitDx=0;exitDy=0;exitPerimeter=0;entryX=0;entryY=0.5;entryDx=0;entryDy=0;edgeStyle=orthogonalEdgeStyle;" parent="1" target="W5Nxt-n41S5UP08d7dyt-19" edge="1">
          <mxGeometry width="50" height="50" relative="1" as="geometry">
            <mxPoint x="379.20000000000005" y="474.5799999999999" as="sourcePoint" />
            <mxPoint x="407" y="435" as="targetPoint" />
            <Array as="points">
              <mxPoint x="397" y="475" />
              <mxPoint x="397" y="435" />
            </Array>
          </mxGeometry>
        </mxCell>
      </root>
    </mxGraphModel>
  </diagram>
</mxfile>
